<?xml version="1.0" standalone="no"?><svg version="1.1" xmlns="http://www.w3.org/2000/svg" width="938.5705071111987" height="561.7988971941095"><svg x="243.02978515625" y="27.5" width="112.03888560398639" height="325.9027069155736"><path d="M4,22L41.51944280199319,22Q51.51944280199319,22,51.51944280199319,32L51.51944280199319,289.9027069155736Q51.51944280199319,299.9027069155736,61.51944280199319,299.9027069155736L99.03888560398639,299.9027069155736L61.51944280199319,299.9027069155736Q51.51944280199319,299.9027069155736,51.51944280199319,289.9027069155736L51.51944280199319,32Q51.51944280199319,22,41.51944280199319,22L4,22L4,22M14,18L14,26M89.03888560398639,295.9027069155736L89.03888560398639,303.9027069155736" fill="none" stroke="#9B9CA4" stroke-width="1"></path><text x="7" y="19" style="font-family: &quot;Open Sans&quot;, sans-serif; font-size: 14px; font-weight: normal; fill: transparent;">1</text><text x="88.03400279148639" y="296.9027069155736" style="font-family: &quot;Open Sans&quot;, sans-serif; font-size: 14px; font-weight: normal; fill: transparent;">1</text></svg><svg x="214.7255859375" y="27.5" width="55.30419921875" height="473.76301615798934"><path d="M32.30419921875,22L42.30419921875,22Q52.30419921875,22,52.30419921875,32L52.30419921875,437.76301615798934Q52.30419921875,447.76301615798934,42.30419921875,447.76301615798934L4,447.76301615798934L42.30419921875,447.76301615798934Q52.30419921875,447.76301615798934,52.30419921875,437.76301615798934L52.30419921875,32Q52.30419921875,22,42.30419921875,22L32.30419921875,22L32.30419921875,22ZM42.30419921875,18L42.30419921875,26M14,443.76301615798934L14,451.76301615798934" fill="none" stroke="#9B9CA4" stroke-width="1"></path><text x="35.30419921875" y="19" style="font-family: &quot;Open Sans&quot;, sans-serif; font-size: 14px; font-weight: normal; fill: transparent;">1</text><text x="7" y="444.76301615798934" style="font-family: &quot;Open Sans&quot;, sans-serif; font-size: 14px; font-weight: normal; fill: transparent;">1</text></svg><svg x="672.3076946320078" y="130.35098743267508" width="104.86486326044087" height="407.9479097614344"><path d="M4,381.9479097614344L37.932431630220435,381.9479097614344Q47.932431630220435,381.9479097614344,47.932431630220435,371.9479097614344L47.932431630220435,32Q47.932431630220435,22,57.932431630220435,22L91.86486326044087,22L57.932431630220435,22Q47.932431630220435,22,47.932431630220435,32L47.932431630220435,371.9479097614344Q47.932431630220435,381.9479097614344,37.932431630220435,381.9479097614344L4,381.9479097614344L4,381.9479097614344M14,377.9479097614344L14,385.9479097614344M91.86486326044087,18L81.86486326044087,22L91.86486326044087,26" fill="none" stroke="#9B9CA4" stroke-width="1"></path><text x="7" y="378.9479097614344" style="font-family: &quot;Open Sans&quot;, sans-serif; font-size: 14px; font-weight: normal; fill: transparent;">1</text><text x="81.15392576044087" y="19" style="font-family: &quot;Open Sans&quot;, sans-serif; font-size: 14px; font-weight: normal; fill: transparent;">*</text></svg><svg x="619.5616935031419" y="64.35098743267507" width="157.6108643893068" height="48.47935368043089"><path d="M4,22.47935368043089L74.06575535443795,22.47935368043089Q74.3054321946534,22.47935368043089,74.3054321946534,22.239676840215445L74.3054321946534,22.239676840215445Q74.3054321946534,22,74.54510903486886,22L144.6108643893068,22L74.54510903486886,22Q74.3054321946534,22,74.3054321946534,22.239676840215445L74.3054321946534,22.239676840215445Q74.3054321946534,22.47935368043089,74.06575535443795,22.47935368043089L4,22.47935368043089L4,22.47935368043089M4,18.47935368043089L14,22.47935368043089L4,26.47935368043089M134.6108643893068,18L134.6108643893068,26" fill="none" stroke="#9B9CA4" stroke-width="1"></path><text x="7" y="19.47935368043089" style="font-family: &quot;Open Sans&quot;, sans-serif; font-size: 14px; font-weight: normal; fill: transparent;">*</text><text x="133.6059815768068" y="19" style="font-family: &quot;Open Sans&quot;, sans-serif; font-size: 14px; font-weight: normal; fill: transparent;">1</text></svg><svg x="243.02978515625" y="27.5" width="178.4435294406419" height="118.33034111310596"><path d="M4,22L74.72176472032095,22Q84.72176472032095,22,84.72176472032095,32L84.72176472032095,82.33034111310596Q84.72176472032095,92.33034111310596,94.72176472032095,92.33034111310596L165.4435294406419,92.33034111310596L94.72176472032095,92.33034111310596Q84.72176472032095,92.33034111310596,84.72176472032095,82.33034111310596L84.72176472032095,32Q84.72176472032095,22,74.72176472032095,22L4,22L4,22M14,18L14,26M165.4435294406419,88.33034111310596L155.4435294406419,92.33034111310596L165.4435294406419,96.33034111310596" fill="none" stroke="#9B9CA4" stroke-width="1"></path><text x="7" y="19" style="font-family: &quot;Open Sans&quot;, sans-serif; font-size: 14px; font-weight: normal; fill: transparent;">1</text><text x="154.7325919406419" y="89.33034111310596" style="font-family: &quot;Open Sans&quot;, sans-serif; font-size: 14px; font-weight: normal; fill: transparent;">*</text></svg><svg x="0" y="0"><rect x="0" y="0" width="247.02978515625" height="33" fill="#222"></rect><text x="10" y="19.75" style="font-family: &quot;Open Sans&quot;, sans-serif; font-size: 13px; font-weight: bold; fill: rgb(255, 255, 255);">tb_medicamento</text></svg><svg x="0" y="33"><rect x="0" y="0" width="247.02978515625" height="33" fill="#37383F"></rect><text x="10" y="19.75" style="font-family: &quot;Open Sans&quot;, sans-serif; font-size: 13px; font-weight: bold; fill: rgb(215, 215, 217);">id</text><text x="199.33740234375" y="19.75" style="font-family: &quot;Open Sans&quot;, sans-serif; font-size: 13px; font-weight: bold; fill: rgb(215, 215, 217);">bigint</text></svg><svg x="0" y="66"><rect x="0" y="0" width="247.02978515625" height="33" fill="#37383F"></rect><text x="10" y="19.75" style="font-family: &quot;Open Sans&quot;, sans-serif; font-size: 13px; fill: rgb(215, 215, 217);">nome</text><text x="161.2958984375" y="19.75" style="font-family: &quot;Open Sans&quot;, sans-serif; font-size: 13px; fill: rgb(215, 215, 217);">varchar(255)</text></svg><svg x="0" y="99"><rect x="0" y="0" width="247.02978515625" height="33" fill="#37383F"></rect><text x="10" y="19.75" style="font-family: &quot;Open Sans&quot;, sans-serif; font-size: 13px; fill: rgb(215, 215, 217);">principio_ativo</text><text x="161.2958984375" y="19.75" style="font-family: &quot;Open Sans&quot;, sans-serif; font-size: 13px; fill: rgb(215, 215, 217);">varchar(255)</text></svg><svg x="0" y="132"><rect x="0" y="0" width="247.02978515625" height="33" fill="#37383F"></rect><text x="10" y="19.75" style="font-family: &quot;Open Sans&quot;, sans-serif; font-size: 13px; fill: rgb(215, 215, 217);">descricao</text><text x="161.2958984375" y="19.75" style="font-family: &quot;Open Sans&quot;, sans-serif; font-size: 13px; fill: rgb(215, 215, 217);">varchar(255)</text></svg><svg x="0" y="165"><rect x="0" y="0" width="247.02978515625" height="33" fill="#37383F"></rect><text x="10" y="19.75" style="font-family: &quot;Open Sans&quot;, sans-serif; font-size: 13px; fill: rgb(215, 215, 217);">marca</text><text x="161.2958984375" y="19.75" style="font-family: &quot;Open Sans&quot;, sans-serif; font-size: 13px; fill: rgb(215, 215, 217);">varchar(255)</text></svg><svg x="0" y="198"><rect x="0" y="0" width="247.02978515625" height="33" fill="#37383F"></rect><text x="10" y="19.75" style="font-family: &quot;Open Sans&quot;, sans-serif; font-size: 13px; fill: rgb(215, 215, 217);">fabricante</text><text x="161.2958984375" y="19.75" style="font-family: &quot;Open Sans&quot;, sans-serif; font-size: 13px; fill: rgb(215, 215, 217);">varchar(255)</text></svg><svg x="0" y="231"><rect x="0" y="0" width="247.02978515625" height="33" fill="#37383F"></rect><text x="10" y="19.75" style="font-family: &quot;Open Sans&quot;, sans-serif; font-size: 13px; fill: rgb(215, 215, 217);">preco</text><text x="194.748046875" y="19.75" style="font-family: &quot;Open Sans&quot;, sans-serif; font-size: 13px; fill: rgb(215, 215, 217);">double</text></svg><svg x="0" y="264"><rect x="0" y="0" width="247.02978515625" height="33" fill="#37383F"></rect><text x="10" y="19.75" style="font-family: &quot;Open Sans&quot;, sans-serif; font-size: 13px; fill: rgb(215, 215, 217);">preco_desconto</text><text x="194.748046875" y="19.75" style="font-family: &quot;Open Sans&quot;, sans-serif; font-size: 13px; fill: rgb(215, 215, 217);">double</text></svg><svg x="0" y="297"><rect x="0" y="0" width="247.02978515625" height="33" fill="#37383F"></rect><text x="10" y="19.75" style="font-family: &quot;Open Sans&quot;, sans-serif; font-size: 13px; fill: rgb(215, 215, 217);">termolabel</text><text x="187.65771484375" y="19.75" style="font-family: &quot;Open Sans&quot;, sans-serif; font-size: 13px; fill: rgb(215, 215, 217);">boolean</text></svg><svg x="342.0686707602364" y="277.9027069155736"><rect x="0" y="0" width="254.7294921875" height="33" fill="#222"></rect><text x="10" y="19.75" style="font-family: &quot;Open Sans&quot;, sans-serif; font-size: 13px; font-weight: bold; fill: rgb(255, 255, 255);">tb_med_injetavel</text></svg><svg x="342.0686707602364" y="310.9027069155736"><rect x="0" y="0" width="254.7294921875" height="33" fill="#37383F"></rect><text x="10" y="19.75" style="font-family: &quot;Open Sans&quot;, sans-serif; font-size: 13px; font-weight: bold; fill: rgb(215, 215, 217);">id_medicamento</text><text x="207.037109375" y="19.75" style="font-family: &quot;Open Sans&quot;, sans-serif; font-size: 13px; font-weight: bold; fill: rgb(215, 215, 217);">bigint</text></svg><svg x="342.0686707602364" y="343.9027069155736"><rect x="0" y="0" width="254.7294921875" height="33" fill="#37383F"></rect><text x="10" y="19.75" style="font-family: &quot;Open Sans&quot;, sans-serif; font-size: 13px; fill: rgb(215, 215, 217);">tipo_aplicacao</text><text x="158.8837890625" y="19.75" style="font-family: &quot;Open Sans&quot;, sans-serif; font-size: 13px; fill: rgb(215, 215, 217);">tipo_aplicacao</text></svg><svg x="0" y="425.76301615798934"><rect x="0" y="0" width="218.7255859375" height="33" fill="#222"></rect><text x="10" y="19.75" style="font-family: &quot;Open Sans&quot;, sans-serif; font-size: 13px; font-weight: bold; fill: rgb(255, 255, 255);">tb_med_sob_prescricao</text></svg><svg x="0" y="458.76301615798934"><rect x="0" y="0" width="218.7255859375" height="33" fill="#37383F"></rect><text x="10" y="19.75" style="font-family: &quot;Open Sans&quot;, sans-serif; font-size: 13px; font-weight: bold; fill: rgb(215, 215, 217);">id_medicamento</text><text x="171.033203125" y="19.75" style="font-family: &quot;Open Sans&quot;, sans-serif; font-size: 13px; font-weight: bold; fill: rgb(215, 215, 217);">bigint</text></svg><svg x="0" y="491.76301615798934"><rect x="0" y="0" width="218.7255859375" height="33" fill="#37383F"></rect><text x="10" y="19.75" style="font-family: &quot;Open Sans&quot;, sans-serif; font-size: 13px; fill: rgb(215, 215, 217);">retencao</text><text x="159.353515625" y="19.75" style="font-family: &quot;Open Sans&quot;, sans-serif; font-size: 13px; fill: rgb(215, 215, 217);">boolean</text></svg><svg x="764.1725578924487" y="36.85098743267507"><rect x="0" y="0" width="169.39794921875" height="33" fill="#222"></rect><text x="10" y="19.75" style="font-family: &quot;Open Sans&quot;, sans-serif; font-size: 13px; font-weight: bold; fill: rgb(255, 255, 255);">tb_pedido</text></svg><svg x="764.1725578924487" y="69.85098743267507"><rect x="0" y="0" width="169.39794921875" height="33" fill="#37383F"></rect><text x="10" y="19.75" style="font-family: &quot;Open Sans&quot;, sans-serif; font-size: 13px; font-weight: bold; fill: rgb(215, 215, 217);">id</text><text x="121.70556640625" y="19.75" style="font-family: &quot;Open Sans&quot;, sans-serif; font-size: 13px; font-weight: bold; fill: rgb(215, 215, 217);">bigint</text></svg><svg x="764.1725578924487" y="102.85098743267507"><rect x="0" y="0" width="169.39794921875" height="33" fill="#37383F"></rect><text x="10" y="19.75" style="font-family: &quot;Open Sans&quot;, sans-serif; font-size: 13px; fill: rgb(215, 215, 217);">id_cliente</text><text x="125.2158203125" y="19.75" style="font-family: &quot;Open Sans&quot;, sans-serif; font-size: 13px; fill: rgb(215, 215, 217);">bigint</text></svg><svg x="764.1725578924487" y="135.85098743267508"><rect x="0" y="0" width="169.39794921875" height="33" fill="#37383F"></rect><text x="10" y="19.75" style="font-family: &quot;Open Sans&quot;, sans-serif; font-size: 13px; fill: rgb(215, 215, 217);">id_status</text><text x="143.509765625" y="19.75" style="font-family: &quot;Open Sans&quot;, sans-serif; font-size: 13px; fill: rgb(215, 215, 217);">int</text></svg><svg x="484.45808525700784" y="462.7988971941095"><rect x="0" y="0" width="191.849609375" height="33" fill="#222"></rect><text x="10" y="19.75" style="font-family: &quot;Open Sans&quot;, sans-serif; font-size: 13px; font-weight: bold; fill: rgb(255, 255, 255);">tb_status_pedido</text></svg><svg x="484.45808525700784" y="495.7988971941095"><rect x="0" y="0" width="191.849609375" height="33" fill="#37383F"></rect><text x="10" y="19.75" style="font-family: &quot;Open Sans&quot;, sans-serif; font-size: 13px; font-weight: bold; fill: rgb(215, 215, 217);">id</text><text x="163.6953125" y="19.75" style="font-family: &quot;Open Sans&quot;, sans-serif; font-size: 13px; font-weight: bold; fill: rgb(215, 215, 217);">int</text></svg><svg x="484.45808525700784" y="528.7988971941095"><rect x="0" y="0" width="191.849609375" height="33" fill="#37383F"></rect><text x="10" y="19.75" style="font-family: &quot;Open Sans&quot;, sans-serif; font-size: 13px; fill: rgb(215, 215, 217);">status</text><text x="106.11572265625" y="19.75" style="font-family: &quot;Open Sans&quot;, sans-serif; font-size: 13px; fill: rgb(215, 215, 217);">varchar(255)</text></svg><svg x="408.4733145968919" y="4.330341113105959"><rect x="0" y="0" width="215.08837890625" height="33" fill="#222"></rect><text x="10" y="19.75" style="font-family: &quot;Open Sans&quot;, sans-serif; font-size: 13px; font-weight: bold; fill: rgb(255, 255, 255);">tb_carrinho</text></svg><svg x="408.4733145968919" y="37.33034111310596"><rect x="0" y="0" width="215.08837890625" height="33" fill="#37383F"></rect><text x="10" y="19.75" style="font-family: &quot;Open Sans&quot;, sans-serif; font-size: 13px; font-weight: bold; fill: rgb(215, 215, 217);">id</text><text x="167.39599609375" y="19.75" style="font-family: &quot;Open Sans&quot;, sans-serif; font-size: 13px; font-weight: bold; fill: rgb(215, 215, 217);">bigint</text></svg><svg x="408.4733145968919" y="70.33034111310596"><rect x="0" y="0" width="215.08837890625" height="33" fill="#37383F"></rect><text x="10" y="19.75" style="font-family: &quot;Open Sans&quot;, sans-serif; font-size: 13px; fill: rgb(215, 215, 217);">id_pedido</text><text x="170.90625" y="19.75" style="font-family: &quot;Open Sans&quot;, sans-serif; font-size: 13px; fill: rgb(215, 215, 217);">bigint</text></svg><svg x="408.4733145968919" y="103.33034111310596"><rect x="0" y="0" width="215.08837890625" height="33" fill="#37383F"></rect><text x="10" y="19.75" style="font-family: &quot;Open Sans&quot;, sans-serif; font-size: 13px; fill: rgb(215, 215, 217);">id_medicamento</text><text x="170.90625" y="19.75" style="font-family: &quot;Open Sans&quot;, sans-serif; font-size: 13px; fill: rgb(215, 215, 217);">bigint</text></svg><svg x="408.4733145968919" y="136.33034111310596"><rect x="0" y="0" width="215.08837890625" height="33" fill="#37383F"></rect><text x="10" y="19.75" style="font-family: &quot;Open Sans&quot;, sans-serif; font-size: 13px; fill: rgb(215, 215, 217);">qnt</text><text x="189.2001953125" y="19.75" style="font-family: &quot;Open Sans&quot;, sans-serif; font-size: 13px; fill: rgb(215, 215, 217);">int</text></svg></svg>