<?xml version="1.0" standalone="no"?><svg version="1.1" xmlns="http://www.w3.org/2000/svg" width="938.5705071111987" height="396"><svg x="219.35302734375" y="27.5" width="56.55143872026497" height="316.0071813285459"><path d="M4,22L13.775719360132484,22Q23.775719360132484,22,23.775719360132484,32L23.775719360132484,280.0071813285459Q23.775719360132484,290.0071813285459,33.775719360132484,290.0071813285459L43.55143872026497,290.0071813285459L33.775719360132484,290.0071813285459Q23.775719360132484,290.0071813285459,23.775719360132484,280.0071813285459L23.775719360132484,32Q23.775719360132484,22,13.775719360132484,22L4,22L4,22M14,18L14,26M33.55143872026497,286.0071813285459L33.55143872026497,294.0071813285459" fill="none" stroke="#9B9CA4" stroke-width="1"></path><text x="7" y="19" style="font-family: &quot;Open Sans&quot;, sans-serif; font-size: 14px; font-weight: normal; fill: transparent;">1</text><text x="32.54655590776497" y="287.0071813285459" style="font-family: &quot;Open Sans&quot;, sans-serif; font-size: 14px; font-weight: normal; fill: transparent;">1</text></svg><svg x="719.3727426854241" y="130.35098743267508" width="57.79981520702461" height="221.91202872531426"><path d="M4,195.91202872531426L14.399907603512304,195.91202872531426Q24.399907603512304,195.91202872531426,24.399907603512304,185.91202872531426L24.399907603512304,32Q24.399907603512304,22,34.399907603512304,22L44.79981520702461,22L34.399907603512304,22Q24.399907603512304,22,24.399907603512304,32L24.399907603512304,185.91202872531426Q24.399907603512304,195.91202872531426,14.399907603512304,195.91202872531426L4,195.91202872531426L4,195.91202872531426M14,191.91202872531426L14,199.91202872531426M44.79981520702461,18L34.79981520702461,22L44.79981520702461,26" fill="none" stroke="#9B9CA4" stroke-width="1"></path><text x="7" y="192.91202872531426" style="font-family: &quot;Open Sans&quot;, sans-serif; font-size: 14px; font-weight: normal; fill: transparent;">1</text><text x="34.08887770702461" y="19" style="font-family: &quot;Open Sans&quot;, sans-serif; font-size: 14px; font-weight: normal; fill: transparent;">*</text></svg><svg x="619.5616935031419" y="64.35098743267507" width="157.6108643893068" height="48.47935368043089"><path d="M4,22.47935368043089L74.06575535443795,22.47935368043089Q74.3054321946534,22.47935368043089,74.3054321946534,22.239676840215445L74.3054321946534,22.239676840215445Q74.3054321946534,22,74.54510903486886,22L144.6108643893068,22L74.54510903486886,22Q74.3054321946534,22,74.3054321946534,22.239676840215445L74.3054321946534,22.239676840215445Q74.3054321946534,22.47935368043089,74.06575535443795,22.47935368043089L4,22.47935368043089L4,22.47935368043089M4,18.47935368043089L14,22.47935368043089L4,26.47935368043089M134.6108643893068,18L134.6108643893068,26" fill="none" stroke="#9B9CA4" stroke-width="1"></path><text x="7" y="19.47935368043089" style="font-family: &quot;Open Sans&quot;, sans-serif; font-size: 14px; font-weight: normal; fill: transparent;">*</text><text x="133.6059815768068" y="19" style="font-family: &quot;Open Sans&quot;, sans-serif; font-size: 14px; font-weight: normal; fill: transparent;">1</text></svg><svg x="219.35302734375" y="27.5" width="202.1202872531419" height="118.33034111310596"><path d="M4,22L86.56014362657095,22Q96.56014362657095,22,96.56014362657095,32L96.56014362657095,82.33034111310596Q96.56014362657095,92.33034111310596,106.56014362657095,92.33034111310596L189.1202872531419,92.33034111310596L106.56014362657095,92.33034111310596Q96.56014362657095,92.33034111310596,96.56014362657095,82.33034111310596L96.56014362657095,32Q96.56014362657095,22,86.56014362657095,22L4,22L4,22M14,18L14,26M189.1202872531419,88.33034111310596L179.1202872531419,92.33034111310596L189.1202872531419,96.33034111310596" fill="none" stroke="#9B9CA4" stroke-width="1"></path><text x="7" y="19" style="font-family: &quot;Open Sans&quot;, sans-serif; font-size: 14px; font-weight: normal; fill: transparent;">1</text><text x="178.4093497531419" y="89.33034111310596" style="font-family: &quot;Open Sans&quot;, sans-serif; font-size: 14px; font-weight: normal; fill: transparent;">*</text></svg><svg x="0" y="0"><rect x="0" y="0" width="223.35302734375" height="33" fill="#222"></rect><text x="10" y="19.75" style="font-family: &quot;Open Sans&quot;, sans-serif; font-size: 13px; font-weight: bold; fill: rgb(255, 255, 255);">tb_medicamento</text></svg><svg x="0" y="33"><rect x="0" y="0" width="223.35302734375" height="33" fill="#37383F"></rect><text x="10" y="19.75" style="font-family: &quot;Open Sans&quot;, sans-serif; font-size: 13px; font-weight: bold; fill: rgb(215, 215, 217);">id</text><text x="175.66064453125" y="19.75" style="font-family: &quot;Open Sans&quot;, sans-serif; font-size: 13px; font-weight: bold; fill: rgb(215, 215, 217);">bigint</text></svg><svg x="0" y="66"><rect x="0" y="0" width="223.35302734375" height="33" fill="#37383F"></rect><text x="10" y="19.75" style="font-family: &quot;Open Sans&quot;, sans-serif; font-size: 13px; fill: rgb(215, 215, 217);">nome</text><text x="160.1533203125" y="19.75" style="font-family: &quot;Open Sans&quot;, sans-serif; font-size: 13px; fill: rgb(215, 215, 217);">varchar2</text></svg><svg x="0" y="99"><rect x="0" y="0" width="223.35302734375" height="33" fill="#37383F"></rect><text x="10" y="19.75" style="font-family: &quot;Open Sans&quot;, sans-serif; font-size: 13px; fill: rgb(215, 215, 217);">principio_ativo</text><text x="160.1533203125" y="19.75" style="font-family: &quot;Open Sans&quot;, sans-serif; font-size: 13px; fill: rgb(215, 215, 217);">varchar2</text></svg><svg x="0" y="132"><rect x="0" y="0" width="223.35302734375" height="33" fill="#37383F"></rect><text x="10" y="19.75" style="font-family: &quot;Open Sans&quot;, sans-serif; font-size: 13px; fill: rgb(215, 215, 217);">descricao</text><text x="160.1533203125" y="19.75" style="font-family: &quot;Open Sans&quot;, sans-serif; font-size: 13px; fill: rgb(215, 215, 217);">varchar2</text></svg><svg x="0" y="165"><rect x="0" y="0" width="223.35302734375" height="33" fill="#37383F"></rect><text x="10" y="19.75" style="font-family: &quot;Open Sans&quot;, sans-serif; font-size: 13px; fill: rgb(215, 215, 217);">marca</text><text x="160.1533203125" y="19.75" style="font-family: &quot;Open Sans&quot;, sans-serif; font-size: 13px; fill: rgb(215, 215, 217);">varchar2</text></svg><svg x="0" y="198"><rect x="0" y="0" width="223.35302734375" height="33" fill="#37383F"></rect><text x="10" y="19.75" style="font-family: &quot;Open Sans&quot;, sans-serif; font-size: 13px; fill: rgb(215, 215, 217);">fabricante</text><text x="160.1533203125" y="19.75" style="font-family: &quot;Open Sans&quot;, sans-serif; font-size: 13px; fill: rgb(215, 215, 217);">varchar2</text></svg><svg x="0" y="231"><rect x="0" y="0" width="223.35302734375" height="33" fill="#37383F"></rect><text x="10" y="19.75" style="font-family: &quot;Open Sans&quot;, sans-serif; font-size: 13px; fill: rgb(215, 215, 217);">preco</text><text x="171.0712890625" y="19.75" style="font-family: &quot;Open Sans&quot;, sans-serif; font-size: 13px; fill: rgb(215, 215, 217);">double</text></svg><svg x="0" y="264"><rect x="0" y="0" width="223.35302734375" height="33" fill="#37383F"></rect><text x="10" y="19.75" style="font-family: &quot;Open Sans&quot;, sans-serif; font-size: 13px; fill: rgb(215, 215, 217);">preco_desconto</text><text x="171.0712890625" y="19.75" style="font-family: &quot;Open Sans&quot;, sans-serif; font-size: 13px; fill: rgb(215, 215, 217);">double</text></svg><svg x="0" y="297"><rect x="0" y="0" width="223.35302734375" height="33" fill="#37383F"></rect><text x="10" y="19.75" style="font-family: &quot;Open Sans&quot;, sans-serif; font-size: 13px; fill: rgb(215, 215, 217);">sob_prescricao</text><text x="163.98095703125" y="19.75" style="font-family: &quot;Open Sans&quot;, sans-serif; font-size: 13px; fill: rgb(215, 215, 217);">boolean</text></svg><svg x="0" y="330"><rect x="0" y="0" width="223.35302734375" height="33" fill="#37383F"></rect><text x="10" y="19.75" style="font-family: &quot;Open Sans&quot;, sans-serif; font-size: 13px; fill: rgb(215, 215, 217);">retencao</text><text x="163.98095703125" y="19.75" style="font-family: &quot;Open Sans&quot;, sans-serif; font-size: 13px; fill: rgb(215, 215, 217);">boolean</text></svg><svg x="0" y="363"><rect x="0" y="0" width="223.35302734375" height="33" fill="#37383F"></rect><text x="10" y="19.75" style="font-family: &quot;Open Sans&quot;, sans-serif; font-size: 13px; fill: rgb(215, 215, 217);">termolabel</text><text x="163.98095703125" y="19.75" style="font-family: &quot;Open Sans&quot;, sans-serif; font-size: 13px; fill: rgb(215, 215, 217);">boolean</text></svg><svg x="262.90446606401497" y="268.0071813285459"><rect x="0" y="0" width="254.7294921875" height="33" fill="#222"></rect><text x="10" y="19.75" style="font-family: &quot;Open Sans&quot;, sans-serif; font-size: 13px; font-weight: bold; fill: rgb(255, 255, 255);">tb_med_injetavel</text></svg><svg x="262.90446606401497" y="301.0071813285459"><rect x="0" y="0" width="254.7294921875" height="33" fill="#37383F"></rect><text x="10" y="19.75" style="font-family: &quot;Open Sans&quot;, sans-serif; font-size: 13px; font-weight: bold; fill: rgb(215, 215, 217);">medicamento_id</text><text x="207.037109375" y="19.75" style="font-family: &quot;Open Sans&quot;, sans-serif; font-size: 13px; font-weight: bold; fill: rgb(215, 215, 217);">bigint</text></svg><svg x="262.90446606401497" y="334.0071813285459"><rect x="0" y="0" width="254.7294921875" height="33" fill="#37383F"></rect><text x="10" y="19.75" style="font-family: &quot;Open Sans&quot;, sans-serif; font-size: 13px; fill: rgb(215, 215, 217);">tipo_aplicacao</text><text x="158.8837890625" y="19.75" style="font-family: &quot;Open Sans&quot;, sans-serif; font-size: 13px; fill: rgb(215, 215, 217);">tipo_aplicacao</text></svg><svg x="764.1725578924487" y="36.85098743267507"><rect x="0" y="0" width="169.39794921875" height="33" fill="#222"></rect><text x="10" y="19.75" style="font-family: &quot;Open Sans&quot;, sans-serif; font-size: 13px; font-weight: bold; fill: rgb(255, 255, 255);">tb_pedido</text></svg><svg x="764.1725578924487" y="69.85098743267507"><rect x="0" y="0" width="169.39794921875" height="33" fill="#37383F"></rect><text x="10" y="19.75" style="font-family: &quot;Open Sans&quot;, sans-serif; font-size: 13px; font-weight: bold; fill: rgb(215, 215, 217);">id</text><text x="121.70556640625" y="19.75" style="font-family: &quot;Open Sans&quot;, sans-serif; font-size: 13px; font-weight: bold; fill: rgb(215, 215, 217);">bigint</text></svg><svg x="764.1725578924487" y="102.85098743267507"><rect x="0" y="0" width="169.39794921875" height="33" fill="#37383F"></rect><text x="10" y="19.75" style="font-family: &quot;Open Sans&quot;, sans-serif; font-size: 13px; fill: rgb(215, 215, 217);">id_cliente</text><text x="125.2158203125" y="19.75" style="font-family: &quot;Open Sans&quot;, sans-serif; font-size: 13px; fill: rgb(215, 215, 217);">bigint</text></svg><svg x="764.1725578924487" y="135.85098743267508"><rect x="0" y="0" width="169.39794921875" height="33" fill="#37383F"></rect><text x="10" y="19.75" style="font-family: &quot;Open Sans&quot;, sans-serif; font-size: 13px; fill: rgb(215, 215, 217);">id_status</text><text x="143.509765625" y="19.75" style="font-family: &quot;Open Sans&quot;, sans-serif; font-size: 13px; fill: rgb(215, 215, 217);">int</text></svg><svg x="543.8312387791741" y="276.76301615798934"><rect x="0" y="0" width="179.54150390625" height="33" fill="#222"></rect><text x="10" y="19.75" style="font-family: &quot;Open Sans&quot;, sans-serif; font-size: 13px; font-weight: bold; fill: rgb(255, 255, 255);">tb_status_pedido</text></svg><svg x="543.8312387791741" y="309.76301615798934"><rect x="0" y="0" width="179.54150390625" height="33" fill="#37383F"></rect><text x="10" y="19.75" style="font-family: &quot;Open Sans&quot;, sans-serif; font-size: 13px; font-weight: bold; fill: rgb(215, 215, 217);">id</text><text x="151.38720703125" y="19.75" style="font-family: &quot;Open Sans&quot;, sans-serif; font-size: 13px; font-weight: bold; fill: rgb(215, 215, 217);">int</text></svg><svg x="543.8312387791741" y="342.76301615798934"><rect x="0" y="0" width="179.54150390625" height="33" fill="#37383F"></rect><text x="10" y="19.75" style="font-family: &quot;Open Sans&quot;, sans-serif; font-size: 13px; fill: rgb(215, 215, 217);">status</text><text x="116.341796875" y="19.75" style="font-family: &quot;Open Sans&quot;, sans-serif; font-size: 13px; fill: rgb(215, 215, 217);">varchar2</text></svg><svg x="408.4733145968919" y="4.330341113105959"><rect x="0" y="0" width="215.08837890625" height="33" fill="#222"></rect><text x="10" y="19.75" style="font-family: &quot;Open Sans&quot;, sans-serif; font-size: 13px; font-weight: bold; fill: rgb(255, 255, 255);">tb_carrinho</text></svg><svg x="408.4733145968919" y="37.33034111310596"><rect x="0" y="0" width="215.08837890625" height="33" fill="#37383F"></rect><text x="10" y="19.75" style="font-family: &quot;Open Sans&quot;, sans-serif; font-size: 13px; font-weight: bold; fill: rgb(215, 215, 217);">id</text><text x="167.39599609375" y="19.75" style="font-family: &quot;Open Sans&quot;, sans-serif; font-size: 13px; font-weight: bold; fill: rgb(215, 215, 217);">bigint</text></svg><svg x="408.4733145968919" y="70.33034111310596"><rect x="0" y="0" width="215.08837890625" height="33" fill="#37383F"></rect><text x="10" y="19.75" style="font-family: &quot;Open Sans&quot;, sans-serif; font-size: 13px; fill: rgb(215, 215, 217);">id_pedido</text><text x="170.90625" y="19.75" style="font-family: &quot;Open Sans&quot;, sans-serif; font-size: 13px; fill: rgb(215, 215, 217);">bigint</text></svg><svg x="408.4733145968919" y="103.33034111310596"><rect x="0" y="0" width="215.08837890625" height="33" fill="#37383F"></rect><text x="10" y="19.75" style="font-family: &quot;Open Sans&quot;, sans-serif; font-size: 13px; fill: rgb(215, 215, 217);">id_medicamento</text><text x="170.90625" y="19.75" style="font-family: &quot;Open Sans&quot;, sans-serif; font-size: 13px; fill: rgb(215, 215, 217);">bigint</text></svg><svg x="408.4733145968919" y="136.33034111310596"><rect x="0" y="0" width="215.08837890625" height="33" fill="#37383F"></rect><text x="10" y="19.75" style="font-family: &quot;Open Sans&quot;, sans-serif; font-size: 13px; fill: rgb(215, 215, 217);">qnt</text><text x="189.2001953125" y="19.75" style="font-family: &quot;Open Sans&quot;, sans-serif; font-size: 13px; fill: rgb(215, 215, 217);">int</text></svg></svg>