<?xml version="1.0" standalone="no"?><svg version="1.1" xmlns="http://www.w3.org/2000/svg" width="938.5705071111987" height="375.76301615798934"><svg x="215.35302734375" y="23.5" width="62.066427289048534" height="225.08797127468583"><path d="M8,26L18.533213644524267,26Q28.533213644524267,26,28.533213644524267,36L28.533213644524267,189.08797127468583Q28.533213644524267,199.08797127468583,38.53321364452427,199.08797127468583L49.066427289048534,199.08797127468583L38.53321364452427,199.08797127468583Q28.533213644524267,199.08797127468583,28.533213644524267,189.08797127468583L28.533213644524267,36Q28.533213644524267,26,18.533213644524267,26L8,26L8,26M18,22L18,30M39.066427289048534,195.08797127468583L39.066427289048534,203.08797127468583" fill="none" stroke="#3EA8DE" stroke-width="2"></path><text x="11" y="23" style="font-family: &quot;Open Sans&quot;, sans-serif; font-size: 14px; font-weight: normal; fill: rgb(215, 215, 217);">1</text><text x="38.061544476548534" y="196.08797127468583" style="font-family: &quot;Open Sans&quot;, sans-serif; font-size: 14px; font-weight: normal; fill: rgb(215, 215, 217);">1</text></svg><svg x="215.35302734375" y="23.5" width="60.55143872026497" height="320.0071813285459"><path d="M8,26L17.775719360132484,26Q27.775719360132484,26,27.775719360132484,36L27.775719360132484,284.0071813285459Q27.775719360132484,294.0071813285459,37.775719360132484,294.0071813285459L47.55143872026497,294.0071813285459L37.775719360132484,294.0071813285459Q27.775719360132484,294.0071813285459,27.775719360132484,284.0071813285459L27.775719360132484,36Q27.775719360132484,26,17.775719360132484,26L8,26L8,26M18,22L18,30M37.55143872026497,290.0071813285459L37.55143872026497,298.0071813285459" fill="none" stroke="#3EA8DE" stroke-width="2"></path><text x="11" y="23" style="font-family: &quot;Open Sans&quot;, sans-serif; font-size: 14px; font-weight: normal; fill: rgb(215, 215, 217);">1</text><text x="36.54655590776497" y="291.0071813285459" style="font-family: &quot;Open Sans&quot;, sans-serif; font-size: 14px; font-weight: normal; fill: rgb(215, 215, 217);">1</text></svg><svg x="715.3727426854241" y="126.35098743267508" width="61.79981520702461" height="225.91202872531426"><path d="M8,199.91202872531426L18.399907603512304,199.91202872531426Q28.399907603512304,199.91202872531426,28.399907603512304,189.91202872531426L28.399907603512304,36Q28.399907603512304,26,38.399907603512304,26L48.79981520702461,26L38.399907603512304,26Q28.399907603512304,26,28.399907603512304,36L28.399907603512304,189.91202872531426Q28.399907603512304,199.91202872531426,18.399907603512304,199.91202872531426L8,199.91202872531426L8,199.91202872531426M18,195.91202872531426L18,203.91202872531426M48.79981520702461,22L38.79981520702461,26L48.79981520702461,30" fill="none" stroke="#3EA8DE" stroke-width="2"></path><text x="11" y="196.91202872531426" style="font-family: &quot;Open Sans&quot;, sans-serif; font-size: 14px; font-weight: normal; fill: rgb(215, 215, 217);">1</text><text x="38.08887770702461" y="23" style="font-family: &quot;Open Sans&quot;, sans-serif; font-size: 14px; font-weight: normal; fill: rgb(215, 215, 217);">*</text></svg><svg x="615.5616935031419" y="60.35098743267507" width="161.6108643893068" height="52.47935368043089"><path d="M8,26.47935368043089L78.06575535443795,26.47935368043089Q78.3054321946534,26.47935368043089,78.3054321946534,26.239676840215445L78.3054321946534,26.239676840215445Q78.3054321946534,26,78.54510903486886,26L148.6108643893068,26L78.54510903486886,26Q78.3054321946534,26,78.3054321946534,26.239676840215445L78.3054321946534,26.239676840215445Q78.3054321946534,26.47935368043089,78.06575535443795,26.47935368043089L8,26.47935368043089L8,26.47935368043089M18,22.47935368043089L18,30.47935368043089M138.6108643893068,22L138.6108643893068,30" fill="none" stroke="#3EA8DE" stroke-width="2"></path><text x="11" y="23.47935368043089" style="font-family: &quot;Open Sans&quot;, sans-serif; font-size: 14px; font-weight: normal; fill: rgb(215, 215, 217);">1</text><text x="137.6059815768068" y="23" style="font-family: &quot;Open Sans&quot;, sans-serif; font-size: 14px; font-weight: normal; fill: rgb(215, 215, 217);">1</text></svg><svg x="215.35302734375" y="23.5" width="206.1202872531419" height="122.33034111310596"><path d="M8,26L90.56014362657095,26Q100.56014362657095,26,100.56014362657095,36L100.56014362657095,86.33034111310596Q100.56014362657095,96.33034111310596,110.56014362657095,96.33034111310596L193.1202872531419,96.33034111310596L110.56014362657095,96.33034111310596Q100.56014362657095,96.33034111310596,100.56014362657095,86.33034111310596L100.56014362657095,36Q100.56014362657095,26,90.56014362657095,26L8,26L8,26M18,22L18,30M183.1202872531419,92.33034111310596L183.1202872531419,100.33034111310596" fill="none" stroke="#3EA8DE" stroke-width="2"></path><text x="11" y="23" style="font-family: &quot;Open Sans&quot;, sans-serif; font-size: 14px; font-weight: normal; fill: rgb(215, 215, 217);">1</text><text x="182.1154044406419" y="93.33034111310596" style="font-family: &quot;Open Sans&quot;, sans-serif; font-size: 14px; font-weight: normal; fill: rgb(215, 215, 217);">1</text></svg><svg x="0" y="0"><rect x="0" y="0" width="223.35302734375" height="33" fill="#222"></rect><text x="10" y="19.75" style="font-family: &quot;Open Sans&quot;, sans-serif; font-size: 13px; font-weight: bold; fill: rgb(255, 255, 255);">tb_medicamento</text></svg><svg x="0" y="33"><rect x="0" y="0" width="223.35302734375" height="33" fill="#4B4C53"></rect><text x="10" y="19.75" style="font-family: &quot;Open Sans&quot;, sans-serif; font-size: 13px; font-weight: bold; fill: rgb(215, 215, 217);">id</text><text x="175.66064453125" y="19.75" style="font-family: &quot;Open Sans&quot;, sans-serif; font-size: 13px; font-weight: bold; fill: rgb(215, 215, 217);">bigint</text></svg><svg x="0" y="66"><rect x="0" y="0" width="223.35302734375" height="33" fill="#37383F"></rect><text x="10" y="19.75" style="font-family: &quot;Open Sans&quot;, sans-serif; font-size: 13px; fill: rgb(215, 215, 217);">nome</text><text x="160.1533203125" y="19.75" style="font-family: &quot;Open Sans&quot;, sans-serif; font-size: 13px; fill: rgb(215, 215, 217);">varchar2</text></svg><svg x="0" y="99"><rect x="0" y="0" width="223.35302734375" height="33" fill="#37383F"></rect><text x="10" y="19.75" style="font-family: &quot;Open Sans&quot;, sans-serif; font-size: 13px; fill: rgb(215, 215, 217);">principio_ativo</text><text x="160.1533203125" y="19.75" style="font-family: &quot;Open Sans&quot;, sans-serif; font-size: 13px; fill: rgb(215, 215, 217);">varchar2</text></svg><svg x="0" y="132"><rect x="0" y="0" width="223.35302734375" height="33" fill="#37383F"></rect><text x="10" y="19.75" style="font-family: &quot;Open Sans&quot;, sans-serif; font-size: 13px; fill: rgb(215, 215, 217);">descricao</text><text x="160.1533203125" y="19.75" style="font-family: &quot;Open Sans&quot;, sans-serif; font-size: 13px; fill: rgb(215, 215, 217);">varchar2</text></svg><svg x="0" y="165"><rect x="0" y="0" width="223.35302734375" height="33" fill="#37383F"></rect><text x="10" y="19.75" style="font-family: &quot;Open Sans&quot;, sans-serif; font-size: 13px; fill: rgb(215, 215, 217);">marca</text><text x="160.1533203125" y="19.75" style="font-family: &quot;Open Sans&quot;, sans-serif; font-size: 13px; fill: rgb(215, 215, 217);">varchar2</text></svg><svg x="0" y="198"><rect x="0" y="0" width="223.35302734375" height="33" fill="#37383F"></rect><text x="10" y="19.75" style="font-family: &quot;Open Sans&quot;, sans-serif; font-size: 13px; fill: rgb(215, 215, 217);">fabricante</text><text x="160.1533203125" y="19.75" style="font-family: &quot;Open Sans&quot;, sans-serif; font-size: 13px; fill: rgb(215, 215, 217);">varchar2</text></svg><svg x="0" y="231"><rect x="0" y="0" width="223.35302734375" height="33" fill="#37383F"></rect><text x="10" y="19.75" style="font-family: &quot;Open Sans&quot;, sans-serif; font-size: 13px; fill: rgb(215, 215, 217);">preco</text><text x="171.0712890625" y="19.75" style="font-family: &quot;Open Sans&quot;, sans-serif; font-size: 13px; fill: rgb(215, 215, 217);">double</text></svg><svg x="0" y="264"><rect x="0" y="0" width="223.35302734375" height="33" fill="#37383F"></rect><text x="10" y="19.75" style="font-family: &quot;Open Sans&quot;, sans-serif; font-size: 13px; fill: rgb(215, 215, 217);">preco_desconto</text><text x="171.0712890625" y="19.75" style="font-family: &quot;Open Sans&quot;, sans-serif; font-size: 13px; fill: rgb(215, 215, 217);">double</text></svg><svg x="0" y="297"><rect x="0" y="0" width="223.35302734375" height="33" fill="#37383F"></rect><text x="10" y="19.75" style="font-family: &quot;Open Sans&quot;, sans-serif; font-size: 13px; fill: rgb(215, 215, 217);">retencao</text><text x="163.98095703125" y="19.75" style="font-family: &quot;Open Sans&quot;, sans-serif; font-size: 13px; fill: rgb(215, 215, 217);">boolean</text></svg><svg x="0" y="330"><rect x="0" y="0" width="223.35302734375" height="33" fill="#37383F"></rect><text x="10" y="19.75" style="font-family: &quot;Open Sans&quot;, sans-serif; font-size: 13px; fill: rgb(215, 215, 217);">termolabel</text><text x="163.98095703125" y="19.75" style="font-family: &quot;Open Sans&quot;, sans-serif; font-size: 13px; fill: rgb(215, 215, 217);">boolean</text></svg><svg x="264.41945463279853" y="173.08797127468583"><rect x="0" y="0" width="218.7255859375" height="33" fill="#222"></rect><text x="10" y="19.75" style="font-family: &quot;Open Sans&quot;, sans-serif; font-size: 13px; font-weight: bold; fill: rgb(255, 255, 255);">tb_med_sob_prescricao</text></svg><svg x="264.41945463279853" y="206.08797127468583"><rect x="0" y="0" width="218.7255859375" height="33" fill="#4B4C53"></rect><text x="10" y="19.75" style="font-family: &quot;Open Sans&quot;, sans-serif; font-size: 13px; font-weight: bold; fill: rgb(215, 215, 217);">medicamento_id</text><text x="171.033203125" y="19.75" style="font-family: &quot;Open Sans&quot;, sans-serif; font-size: 13px; font-weight: bold; fill: rgb(215, 215, 217);">bigint</text></svg><svg x="262.90446606401497" y="268.0071813285459"><rect x="0" y="0" width="254.7294921875" height="33" fill="#222"></rect><text x="10" y="19.75" style="font-family: &quot;Open Sans&quot;, sans-serif; font-size: 13px; font-weight: bold; fill: rgb(255, 255, 255);">tb_med_injetavel</text></svg><svg x="262.90446606401497" y="301.0071813285459"><rect x="0" y="0" width="254.7294921875" height="33" fill="#4B4C53"></rect><text x="10" y="19.75" style="font-family: &quot;Open Sans&quot;, sans-serif; font-size: 13px; font-weight: bold; fill: rgb(215, 215, 217);">medicamento_id</text><text x="207.037109375" y="19.75" style="font-family: &quot;Open Sans&quot;, sans-serif; font-size: 13px; font-weight: bold; fill: rgb(215, 215, 217);">bigint</text></svg><svg x="262.90446606401497" y="334.0071813285459"><rect x="0" y="0" width="254.7294921875" height="33" fill="#37383F"></rect><text x="10" y="19.75" style="font-family: &quot;Open Sans&quot;, sans-serif; font-size: 13px; fill: rgb(215, 215, 217);">tipo_aplicacao</text><text x="158.8837890625" y="19.75" style="font-family: &quot;Open Sans&quot;, sans-serif; font-size: 13px; fill: rgb(215, 215, 217);">tipo_aplicacao</text></svg><svg x="764.1725578924487" y="36.85098743267507"><rect x="0" y="0" width="169.39794921875" height="33" fill="#222"></rect><text x="10" y="19.75" style="font-family: &quot;Open Sans&quot;, sans-serif; font-size: 13px; font-weight: bold; fill: rgb(255, 255, 255);">tb_pedido</text></svg><svg x="764.1725578924487" y="69.85098743267507"><rect x="0" y="0" width="169.39794921875" height="33" fill="#4B4C53"></rect><text x="10" y="19.75" style="font-family: &quot;Open Sans&quot;, sans-serif; font-size: 13px; font-weight: bold; fill: rgb(215, 215, 217);">id</text><text x="121.70556640625" y="19.75" style="font-family: &quot;Open Sans&quot;, sans-serif; font-size: 13px; font-weight: bold; fill: rgb(215, 215, 217);">bigint</text></svg><svg x="764.1725578924487" y="102.85098743267507"><rect x="0" y="0" width="169.39794921875" height="33" fill="#37383F"></rect><text x="10" y="19.75" style="font-family: &quot;Open Sans&quot;, sans-serif; font-size: 13px; fill: rgb(215, 215, 217);">cliente_id</text><text x="125.2158203125" y="19.75" style="font-family: &quot;Open Sans&quot;, sans-serif; font-size: 13px; fill: rgb(215, 215, 217);">bigint</text></svg><svg x="764.1725578924487" y="135.85098743267508"><rect x="0" y="0" width="169.39794921875" height="33" fill="#4B4C53"></rect><text x="10" y="19.75" style="font-family: &quot;Open Sans&quot;, sans-serif; font-size: 13px; fill: rgb(215, 215, 217);">id_status</text><text x="143.509765625" y="19.75" style="font-family: &quot;Open Sans&quot;, sans-serif; font-size: 13px; fill: rgb(215, 215, 217);">int</text></svg><svg x="543.8312387791741" y="276.76301615798934"><rect x="0" y="0" width="179.54150390625" height="33" fill="#222"></rect><text x="10" y="19.75" style="font-family: &quot;Open Sans&quot;, sans-serif; font-size: 13px; font-weight: bold; fill: rgb(255, 255, 255);">tb_status_pedido</text></svg><svg x="543.8312387791741" y="309.76301615798934"><rect x="0" y="0" width="179.54150390625" height="33" fill="#4B4C53"></rect><text x="10" y="19.75" style="font-family: &quot;Open Sans&quot;, sans-serif; font-size: 13px; font-weight: bold; fill: rgb(215, 215, 217);">id</text><text x="151.38720703125" y="19.75" style="font-family: &quot;Open Sans&quot;, sans-serif; font-size: 13px; font-weight: bold; fill: rgb(215, 215, 217);">int</text></svg><svg x="543.8312387791741" y="342.76301615798934"><rect x="0" y="0" width="179.54150390625" height="33" fill="#37383F"></rect><text x="10" y="19.75" style="font-family: &quot;Open Sans&quot;, sans-serif; font-size: 13px; fill: rgb(215, 215, 217);">status</text><text x="116.341796875" y="19.75" style="font-family: &quot;Open Sans&quot;, sans-serif; font-size: 13px; fill: rgb(215, 215, 217);">varchar2</text></svg><svg x="408.4733145968919" y="4.330341113105959"><rect x="0" y="0" width="215.08837890625" height="33" fill="#222"></rect><text x="10" y="19.75" style="font-family: &quot;Open Sans&quot;, sans-serif; font-size: 13px; font-weight: bold; fill: rgb(255, 255, 255);">tb_carrinho</text></svg><svg x="408.4733145968919" y="37.33034111310596"><rect x="0" y="0" width="215.08837890625" height="33" fill="#37383F"></rect><text x="10" y="19.75" style="font-family: &quot;Open Sans&quot;, sans-serif; font-size: 13px; font-weight: bold; fill: rgb(215, 215, 217);">id</text><text x="167.39599609375" y="19.75" style="font-family: &quot;Open Sans&quot;, sans-serif; font-size: 13px; font-weight: bold; fill: rgb(215, 215, 217);">bigint</text></svg><svg x="408.4733145968919" y="70.33034111310596"><rect x="0" y="0" width="215.08837890625" height="33" fill="#4B4C53"></rect><text x="10" y="19.75" style="font-family: &quot;Open Sans&quot;, sans-serif; font-size: 13px; fill: rgb(215, 215, 217);">id_pedido</text><text x="170.90625" y="19.75" style="font-family: &quot;Open Sans&quot;, sans-serif; font-size: 13px; fill: rgb(215, 215, 217);">bigint</text></svg><svg x="408.4733145968919" y="103.33034111310596"><rect x="0" y="0" width="215.08837890625" height="33" fill="#4B4C53"></rect><text x="10" y="19.75" style="font-family: &quot;Open Sans&quot;, sans-serif; font-size: 13px; fill: rgb(215, 215, 217);">id_medicamento</text><text x="170.90625" y="19.75" style="font-family: &quot;Open Sans&quot;, sans-serif; font-size: 13px; fill: rgb(215, 215, 217);">bigint</text></svg></svg>